HIERARCHY
ROOT Hips
{
  OFFSET 90.7885 88.945 -76.2838
  CHANNELS 6 Xposition Yposition Zposition Zrotation Xrotation Yrotation
  JOINT LeftUpLeg
  {
    OFFSET 8.64259 1.95398 -2.38835
    CHANNELS 3 Zrotation Xrotation Yrotation
    JOINT LeftLeg
    {
      OFFSET 43.7702 0 0
      CHANNELS 3 Zrotation Xrotation Yrotation
      JOINT LeftFoot
      {
        OFFSET 40.6238 0 0
        CHANNELS 3 Zrotation Xrotation Yrotation
        JOINT LeftToeBase
        {
          OFFSET 12.7242 0 0
          CHANNELS 3 Zrotation Xrotation Yrotation
          End Site
          {
            OFFSET 0 0 0
          }
        }
      }
    }
  }
  JOINT RightUpLeg
  {
    OFFSET -8.2249 1.95398 -2.59336
    CHANNELS 3 Zrotation Xrotation Yrotation
    JOINT RightLeg
    {
      OFFSET 43.5653 0 0
      CHANNELS 3 Zrotation Xrotation Yrotation
      JOINT RightFoot
      {
        OFFSET 40.6238 0 0
        CHANNELS 3 Zrotation Xrotation Yrotation
        JOINT RightToeBase
        {
          OFFSET 12.7242 0 0
          CHANNELS 3 Zrotation Xrotation Yrotation
          End Site
          {
            OFFSET 0 0 0
          }
        }
      }
    }
  }
  JOINT Spine
  {
    OFFSET 0.165834 0.87714 6.61349
    CHANNELS 3 Zrotation Xrotation Yrotation
    JOINT Spine1
    {
      OFFSET 7.38963 1.71661e-005 0
      CHANNELS 3 Zrotation Xrotation Yrotation
      JOINT Spine2
      {
        OFFSET 11.9445 1.14441e-005 0
        CHANNELS 3 Zrotation Xrotation Yrotation
        JOINT Spine3
        {
          OFFSET 14.7254 4.19617e-005 0
          CHANNELS 3 Zrotation Xrotation Yrotation
          JOINT Spine4
          {
            OFFSET 10.9679 0 0
            CHANNELS 3 Zrotation Xrotation Yrotation
            JOINT RightShoulder
            {
              OFFSET 2.46616 -1.6653 3.69651
              CHANNELS 3 Zrotation Xrotation Yrotation
              JOINT RightArm
              {
                OFFSET 13.0012 0 0
                CHANNELS 3 Zrotation Xrotation Yrotation
                JOINT RightForeArm
                {
                  OFFSET 28.7848 1.52588e-005 0
                  CHANNELS 3 Zrotation Xrotation Yrotation
                  JOINT RightHand
                  {
                    OFFSET 26.5688 1.52588e-005 0
                    CHANNELS 3 Zrotation Xrotation Yrotation
                    End Site
                    {
                      OFFSET 0 0 0
                    }
                  }
                }
              }
            }
            JOINT LeftShoulder
            {
              OFFSET 2.38034 -1.29275 -3.7523
              CHANNELS 3 Zrotation Xrotation Yrotation
              JOINT LeftArm
              {
                OFFSET 16.3182 6.10352e-005 0
                CHANNELS 3 Zrotation Xrotation Yrotation
                JOINT LeftForeArm
                {
                  OFFSET 27.0901 0 0
                  CHANNELS 3 Zrotation Xrotation Yrotation
                  JOINT LeftHand
                  {
                    OFFSET 24.5451 1.52588e-005 0
                    CHANNELS 3 Zrotation Xrotation Yrotation
                    End Site
                    {
                      OFFSET 0 0 0
                    }
                  }
                }
              }
            }
            JOINT Neck
            {
              OFFSET 5.0226 -0.0266342 0
              CHANNELS 3 Zrotation Xrotation Yrotation
              JOINT Head
              {
                OFFSET 6.69363 2.86102e-005 0
                CHANNELS 3 Zrotation Xrotation Yrotation
                End Site
                {
                  OFFSET 0 0 0
                }
              }
            }
          }
        }
      }
    }
  }
}
MOTION
Frames:	10
Frame Time:	0.0416667
-21.2118 99.5898 57.5406 102.049 26.9693 84.4497 -178.356 -6.89864 88.4095 -10.9014 -4.99963 0.335616 72.6928 5.05385 -1.65012 8.20823 -3.21351 6.25165 170.299 -5.35354 86.111 -13.5852 -21.6737 -2.53048 66.9377 -3.75566 0.655456 23.0622 -0.719364 2.70495 0.1018 7.92049 -90.0335 11.033 0.187187 -0.0846399 -0.637986 0.183307 -0.0928051 -23.1733 0.203958 -0.0244741 -3.16061 0.203965 -0.0244736 87.7598 -29.8279 -111.245 22.439 -10.8451 -28.1 12.7339 13.615 -45.7297 -12.6668 1.88858 -14.3517 -89.7002 -54.2252 80.0268 -13.6521 7.31536 -19.3252 -31.003 -31.5509 -59.4685 -2.97528 -0.0678674 -8.67667 -9.4843 -6.1605 -6.86138 -3.12784 -5.777 0.373346 
-21.2575 99.595 57.4774 101.863 27.513 84.474 -178.387 -6.37167 88.4372 -11.3529 -4.67802 0.405517 71.438 4.44494 -1.84052 11.8006 -2.68199 5.42245 170.111 -5.24778 86.0072 -13.3782 -21.4234 -2.32948 67.002 -3.82045 0.609029 23.1141 -0.655087 2.56666 0.131267 7.9059 -90.0651 11.0622 0.231127 -0.151766 -0.608704 0.224229 -0.161796 -23.144 0.266045 -0.0752813 -3.13135 0.266078 -0.0752859 88.0441 -29.3404 -110.903 23.0867 -10.1795 -27.7798 11.1624 10.4023 -45.0755 -11.6461 1.88766 -16.3585 -90.0616 -54.8523 79.6353 -13.1324 7.44488 -19.88 -29.3467 -31.2096 -58.156 -2.69245 -0.0808517 -7.92723 -8.63693 -2.13761 -4.72771 -4.00259 -1.86371 1.72432 
-21.3514 99.5463 57.3914 101.886 28.4253 84.4251 -178.144 -5.976 88.6669 -11.9266 -3.45649 0.209074 72.4747 4.80103 -2.19179 9.78016 -3.72149 6.67248 169.817 -5.31757 85.8984 -13.1898 -21.1328 -1.98178 67.3693 -4.02113 0.590885 22.7424 -0.162305 1.61269 0.148338 7.906 -90.0815 11.0621 0.257537 -0.186912 -0.608861 0.24906 -0.198072 -23.1442 0.301795 -0.100876 -3.13153 0.301812 -0.100869 87.7789 -29.4646 -111.371 23.187 -9.47199 -26.6692 11.748 11.1709 -45.6 -12.0342 1.96289 -16.2486 -90.4367 -55.2046 79.1744 -12.9874 7.82508 -20.231 -29.44 -31.502 -57.8932 -1.16876 -0.115961 -7.08828 -7.63733 0.695689 -3.99292 -5.15563 0.91081 2.84008 
-21.481 99.5264 57.1706 101.488 29.2249 84.3568 -178.338 -5.28319 88.3414 -12.25 -3.03382 0.229121 71.3647 4.4052 -1.84233 13.0747 -2.6471 5.32211 169.414 -4.84179 85.5017 -13.3055 -20.9121 -1.70553 67.5861 -4.12861 0.533998 22.6057 0.0967815 1.10668 0.169374 7.87786 -90.065 11.1184 0.30689 -0.159063 -0.552553 0.299611 -0.172423 -23.088 0.340514 -0.059465 -3.07533 0.340518 -0.059476 87.7853 -29.6712 -111.265 23.1125 -9.00407 -26.1879 11.7246 10.9458 -45.6585 -12.2988 1.97836 -16.2307 -90.4261 -55.0305 79.1545 -13.8244 8.1502 -20.5622 -28.9273 -31.5616 -57.4922 -1.15163 -0.122801 -7.50379 -6.5943 2.67986 -3.64658 -5.7258 2.8552 3.75101 
-21.477 99.491 56.9242 101.163 30.0559 84.4883 -178.245 -4.77361 88.3893 -12.6511 -2.37074 0.0992759 71.7665 4.58193 -1.80024 12.5952 -2.38214 5.06172 169.442 -4.63309 85.485 -13.2278 -19.3357 -1.7063 67.0708 -3.90588 1.09973 24.2172 -0.669844 2.41315 0.197204 7.86502 -90.1032 11.1442 0.344616 -0.238989 -0.526755 0.333766 -0.253931 -23.0622 0.400505 -0.124371 -3.04957 0.40051 -0.124372 87.8577 -29.4943 -111.202 23.0881 -8.21768 -25.8414 11.2423 10.2617 -45.4097 -11.3217 1.98695 -17.4716 -90.5085 -55.5817 79.1494 -14.0622 8.49703 -21.3139 -28.3975 -31.6514 -56.7707 -0.578125 -0.129705 -6.87212 -5.596 3.86615 -2.68456 -6.31244 3.95383 3.94404 
-21.4663 99.4887 56.4668 101.396 30.794 84.1069 -178.367 -5.06491 88.0494 -12.4617 -1.68546 0.0764554 71.5905 4.60718 -1.62956 12.7782 -1.72437 4.31785 169.077 -4.93148 84.992 -13.2465 -18.9578 -1.67655 67.3524 -4.02444 1.03643 24.1484 -0.664317 2.41216 0.21252 7.90578 -90.0959 11.0627 0.378248 -0.227272 -0.608213 0.367902 -0.243703 -23.1438 0.429111 -0.103071 -3.13112 0.429075 -0.103085 87.6649 -29.3994 -111.625 23.102 -7.88478 -25.1678 12.2728 12.048 -45.9383 -13.1457 2.13496 -16.316 -90.3894 -55.5456 79.3095 -14.0697 9.64352 -22.199 -28.5341 -32.0764 -56.6479 -2.95545 -0.0692634 -8.9289 -5.03075 4.54542 -2.12042 -6.29754 4.59556 3.74449 
-21.4552 99.4795 55.9454 101.219 31.7238 83.9965 -178.257 -4.99074 87.9126 -12.4536 -0.604588 -0.220468 71.8882 4.81977 -1.70131 12.964 -2.43898 5.09174 168.698 -5.04743 84.5792 -12.9843 -18.4811 -1.53142 67.436 -4.05524 1.1469 24.3421 -0.414848 1.8504 0.207923 7.87797 -90.0867 11.1183 0.373649 -0.208927 -0.552663 0.364104 -0.225183 -23.0882 0.419164 -0.0869695 -3.07556 0.419169 -0.0869697 87.8303 -29.4636 -111.27 23.3203 -7.30435 -24.9958 11.4037 9.66816 -45.5815 -12.4312 2.09275 -17.4651 -90.3117 -55.5648 79.4228 -13.9398 10.2009 -22.7531 -28.3348 -32.325 -56.0352 -2.25467 -0.0946526 -8.26185 -4.44897 4.7913 -1.60554 -6.72422 4.80599 3.19455 
-21.3462 99.4701 55.2583 101.027 32.604 83.9146 -178.563 -5.12129 87.4644 -12.1651 -0.384948 -0.0447724 72.1527 4.98841 -2.20502 11.0086 -1.64848 4.40117 168.297 -5.35824 84.1169 -12.459 -17.8662 -1.43722 67.3108 -3.97607 1.18875 24.721 -0.531075 2.03106 0.199136 7.86611 -90.0966 11.142 0.351594 -0.226429 -0.528941 0.341282 -0.241685 -23.0644 0.403396 -0.110285 -3.05178 0.40338 -0.110297 87.9045 -29.3634 -111.169 23.4074 -6.09316 -24.8656 8.40627 3.50319 -45.137 -10.1633 1.59347 -18.583 -90.2839 -55.5685 79.4623 -14.0747 10.5696 -23.3692 -28.1296 -32.6254 -55.5431 -2.42152 -0.0887992 -8.34726 -3.98089 4.82721 -1.04987 -6.93163 4.79389 2.9049 
-21.304 99.4286 54.4415 100.953 33.626 83.6028 -178.803 -5.19634 86.8226 -12.308 0.290506 -0.0978977 72.3863 5.13498 -1.89684 12.219 -2.28943 4.98969 167.71 -5.69103 83.3707 -12.0164 -17.6481 -1.32778 67.6189 -4.13335 1.28946 24.964 -0.212309 1.30033 0.175577 7.84041 -90.1063 11.1934 0.300054 -0.241103 -0.477563 0.289173 -0.254085 -23.0129 0.358658 -0.139779 -3.00028 0.358654 -0.139777 88.1398 -28.987 -110.871 23.5574 -7.3342 -24.5272 15.0947 16.5798 -46.8724 -14.4245 2.39681 -15.5619 -90.3084 -55.6976 79.4535 -14.4131 10.517 -23.6811 -27.1562 -32.084 -54.9237 -2.52913 -0.0856853 -7.90342 -4.18884 4.77343 -0.479758 -6.49382 4.69722 2.74245 
-21.1067 99.3246 53.71 100.715 33.8023 83.7598 -178.613 -5.09266 86.7795 -12.8477 0.690406 -0.437307 72.9048 5.26866 -1.86949 11.9001 -1.95378 4.65737 167.802 -5.76501 83.2366 -12.2791 -16.9708 -1.58762 68.0049 -4.34159 1.41355 25.1344 -0.246328 1.34043 0.252174 7.82273 -90.1258 11.229 0.443437 -0.294074 -0.441901 0.430063 -0.313311 -22.9776 0.511315 -0.147203 -2.96492 0.511313 -0.14721 88.1665 -29.2123 -110.718 23.6582 -5.99435 -24.1496 11.4549 9.33915 -45.6872 -12.0656 2.08569 -17.8314 -90.2161 -55.0005 79.4459 -15.0577 11.0277 -23.9393 -27.3375 -32.2161 -54.8109 -0.581809 -0.131805 -6.88246 -3.8524 4.49403 -0.488192 -6.62141 4.42709 2.47542 
